STARTFONT 2.1
COMMENT Font converted from OTF to BDF.
FONT -FreeType-Noto Sans Khmer Light-Medium-R-Normal--16-150-75-75-P-74-ISO10646-1
SIZE 15 75 75
FONTBOUNDINGBOX 42 25 -16 -7
STARTPROPERTIES 19
POINT_SIZE 150
PIXEL_SIZE 16
RESOLUTION_X 75
RESOLUTION_Y 75
FONT_ASCENT 17
FONT_DESCENT 4
AVERAGE_WIDTH 74
SPACING "P"
FOUNDRY "FreeType"
FAMILY_NAME "Noto Sans Khmer Light"
CHARSET_REGISTRY "ISO10646"
CHARSET_ENCODING "1"
WEIGHT_NAME "Medium"
SLANT "R"
SETWIDTH_NAME "Normal"
COPYRIGHT "Copyright 2016 Google Inc. All Rights Reserved."
_TTF_PSNAME "NotoSansKhmer-Light"
_OTF_FONTFILE "NotoSansKhmer-Light_old.ttf"
_GBDFED_INFO "Edited with gbdfed 1.6."
ENDPROPERTIES
CHARS 222
STARTCHAR char0
ENCODING 0
SWIDTH 0 0
DWIDTH 0 0
BBX 0 0 0 0
BITMAP
ENDCHAR
STARTCHAR char13
ENCODING 13
SWIDTH 256 0
DWIDTH 4 0
BBX 0 0 0 0
BITMAP
ENDCHAR
STARTCHAR char32
ENCODING 32
SWIDTH 256 0
DWIDTH 4 0
BBX 0 0 0 0
BITMAP
ENDCHAR
STARTCHAR char33
ENCODING 33
SWIDTH 256 0
DWIDTH 4 0
BBX 2 11 1 0
BITMAP
80
80
80
80
80
80
80
80
00
00
C0
ENDCHAR
STARTCHAR char34
ENCODING 34
SWIDTH 384 0
DWIDTH 6 0
BBX 4 4 1 7
BITMAP
90
90
A0
80
ENDCHAR
STARTCHAR char39
ENCODING 39
SWIDTH 192 0
DWIDTH 3 0
BBX 1 4 1 7
BITMAP
80
80
80
80
ENDCHAR
STARTCHAR char40
ENCODING 40
SWIDTH 256 0
DWIDTH 4 0
BBX 2 13 1 -2
BITMAP
40
40
80
80
80
80
80
80
80
80
80
40
40
ENDCHAR
STARTCHAR char41
ENCODING 41
SWIDTH 256 0
DWIDTH 4 0
BBX 3 13 1 -2
BITMAP
80
40
40
40
20
20
20
20
20
40
40
40
80
ENDCHAR
STARTCHAR char44
ENCODING 44
SWIDTH 192 0
DWIDTH 3 0
BBX 1 4 1 -2
BITMAP
80
80
80
80
ENDCHAR
STARTCHAR char45
ENCODING 45
SWIDTH 320 0
DWIDTH 5 0
BBX 3 1 1 4
BITMAP
E0
ENDCHAR
STARTCHAR char46
ENCODING 46
SWIDTH 256 0
DWIDTH 4 0
BBX 2 1 1 0
BITMAP
C0
ENDCHAR
STARTCHAR char47
ENCODING 47
SWIDTH 320 0
DWIDTH 5 0
BBX 5 11 0 0
BITMAP
08
08
10
10
20
20
20
40
40
40
80
ENDCHAR
STARTCHAR char58
ENCODING 58
SWIDTH 256 0
DWIDTH 4 0
BBX 2 8 1 0
BITMAP
C0
00
00
00
00
00
00
C0
ENDCHAR
STARTCHAR char59
ENCODING 59
SWIDTH 256 0
DWIDTH 4 0
BBX 2 10 1 -2
BITMAP
C0
00
00
00
00
00
80
80
80
80
ENDCHAR
STARTCHAR char63
ENCODING 63
SWIDTH 448 0
DWIDTH 7 0
BBX 6 11 0 0
BITMAP
F8
04
04
04
08
10
20
20
00
00
20
ENDCHAR
STARTCHAR char160
ENCODING 160
SWIDTH 256 0
DWIDTH 4 0
BBX 0 0 0 0
BITMAP
ENDCHAR
STARTCHAR char171
ENCODING 171
SWIDTH 448 0
DWIDTH 7 0
BBX 6 6 1 1
BITMAP
48
90
90
90
48
24
ENDCHAR
STARTCHAR char173
ENCODING 173
SWIDTH 320 0
DWIDTH 5 0
BBX 3 1 1 4
BITMAP
E0
ENDCHAR
STARTCHAR char187
ENCODING 187
SWIDTH 448 0
DWIDTH 7 0
BBX 5 6 1 1
BITMAP
90
48
68
48
90
20
ENDCHAR
STARTCHAR char6016
ENCODING 6016
SWIDTH 512 0
DWIDTH 8 0
BBX 6 9 1 0
BITMAP
FC
00
78
84
84
84
84
84
84
ENDCHAR
STARTCHAR char6017
ENCODING 6017
SWIDTH 512 0
DWIDTH 8 0
BBX 6 9 1 0
BITMAP
78
84
84
08
30
C0
84
84
78
ENDCHAR
STARTCHAR char6018
ENCODING 6018
SWIDTH 512 0
DWIDTH 8 0
BBX 6 9 1 0
BITMAP
FC
00
78
84
84
84
E4
84
84
ENDCHAR
STARTCHAR char6019
ENCODING 6019
SWIDTH 832 0
DWIDTH 13 0
BBX 12 9 0 0
BITMAP
C630
4840
4E70
4210
4210
4210
4210
4210
3DE0
ENDCHAR
STARTCHAR char6020
ENCODING 6020
SWIDTH 512 0
DWIDTH 8 0
BBX 7 9 0 0
BITMAP
5C
54
7E
02
C2
42
42
5A
66
ENDCHAR
STARTCHAR char6021
ENCODING 6021
SWIDTH 512 0
DWIDTH 8 0
BBX 7 9 0 0
BITMAP
7E
80
46
4A
4E
42
42
42
3C
ENDCHAR
STARTCHAR char6022
ENCODING 6022
SWIDTH 512 0
DWIDTH 8 0
BBX 7 9 0 0
BITMAP
7E
80
46
4A
4E
42
F2
AA
44
ENDCHAR
STARTCHAR char6023
ENCODING 6023
SWIDTH 512 0
DWIDTH 8 0
BBX 7 11 0 0
BITMAP
02
02
7E
80
40
42
42
42
42
5A
66
ENDCHAR
STARTCHAR char6024
ENCODING 6024
SWIDTH 1152 0
DWIDTH 18 0
BBX 16 9 1 0
BITMAP
7863
8484
84E7
8421
8421
8421
E421
A421
C3DE
ENDCHAR
STARTCHAR char6025
ENCODING 6025
SWIDTH 832 0
DWIDTH 13 0
BBX 11 13 1 -4
BITMAP
5BC0
A420
8420
8420
8420
8420
E420
A420
C420
0000
F020
0E20
01C0
ENDCHAR
STARTCHAR char6026
ENCODING 6026
SWIDTH 512 0
DWIDTH 8 0
BBX 6 9 1 0
BITMAP
84
F8
00
84
84
84
84
B4
CC
ENDCHAR
STARTCHAR char6027
ENCODING 6027
SWIDTH 512 0
DWIDTH 8 0
BBX 7 11 0 0
BITMAP
02
02
C6
48
4E
42
42
42
42
42
3C
ENDCHAR
STARTCHAR char6028
ENCODING 6028
SWIDTH 512 0
DWIDTH 8 0
BBX 6 9 1 0
BITMAP
58
A4
84
08
30
C4
84
8C
74
ENDCHAR
STARTCHAR char6029
ENCODING 6029
SWIDTH 832 0
DWIDTH 13 0
BBX 11 9 1 0
BITMAP
5860
A480
84E0
8420
8420
8420
E620
A520
C4C0
ENDCHAR
STARTCHAR char6030
ENCODING 6030
SWIDTH 1152 0
DWIDTH 18 0
BBX 16 9 1 0
BITMAP
781E
8421
8421
8421
8421
8421
E421
A5A1
C661
ENDCHAR
STARTCHAR char6031
ENCODING 6031
SWIDTH 512 0
DWIDTH 8 0
BBX 6 9 1 0
BITMAP
FC
00
78
84
84
84
E4
A4
C4
ENDCHAR
STARTCHAR char6032
ENCODING 6032
SWIDTH 512 0
DWIDTH 8 0
BBX 7 11 0 0
BITMAP
02
02
7E
80
C6
4A
4E
42
42
42
3C
ENDCHAR
STARTCHAR char6033
ENCODING 6033
SWIDTH 512 0
DWIDTH 8 0
BBX 6 9 1 0
BITMAP
78
84
80
80
7C
08
84
84
78
ENDCHAR
STARTCHAR char6034
ENCODING 6034
SWIDTH 512 0
DWIDTH 8 0
BBX 7 9 0 0
BITMAP
7E
80
C6
4A
4E
42
42
5A
66
ENDCHAR
STARTCHAR char6035
ENCODING 6035
SWIDTH 512 0
DWIDTH 8 0
BBX 6 9 1 0
BITMAP
78
84
84
80
78
04
C4
A4
98
ENDCHAR
STARTCHAR char6036
ENCODING 6036
SWIDTH 512 0
DWIDTH 8 0
BBX 8 9 0 0
BITMAP
63
84
42
42
42
42
42
42
3C
ENDCHAR
STARTCHAR char6037
ENCODING 6037
SWIDTH 512 0
DWIDTH 8 0
BBX 7 11 0 0
BITMAP
02
02
7E
80
C6
4A
4E
42
42
5A
66
ENDCHAR
STARTCHAR char6038
ENCODING 6038
SWIDTH 512 0
DWIDTH 8 0
BBX 6 9 1 0
BITMAP
58
A4
84
84
84
84
E4
A4
C4
ENDCHAR
STARTCHAR char6039
ENCODING 6039
SWIDTH 512 0
DWIDTH 8 0
BBX 6 9 1 0
BITMAP
FC
00
78
84
84
84
44
44
C4
ENDCHAR
STARTCHAR char6040
ENCODING 6040
SWIDTH 512 0
DWIDTH 8 0
BBX 8 9 0 0
BITMAP
63
84
42
42
5E
42
42
42
3C
ENDCHAR
STARTCHAR char6041
ENCODING 6041
SWIDTH 832 0
DWIDTH 13 0
BBX 11 9 1 0
BITMAP
CC60
9080
9CE0
8420
8420
8420
8420
8420
7BC0
ENDCHAR
STARTCHAR char6042
ENCODING 6042
SWIDTH 320 0
DWIDTH 5 0
BBX 3 9 1 0
BITMAP
60
80
E0
20
20
20
E0
A0
60
ENDCHAR
STARTCHAR char6043
ENCODING 6043
SWIDTH 832 0
DWIDTH 13 0
BBX 11 9 1 0
BITMAP
7860
8480
84E0
8420
8420
8420
E420
A420
C3C0
ENDCHAR
STARTCHAR char6044
ENCODING 6044
SWIDTH 320 0
DWIDTH 5 0
BBX 3 11 1 0
BITMAP
20
20
60
80
E0
20
20
20
E0
A0
60
ENDCHAR
STARTCHAR char6045
ENCODING 6045
SWIDTH 512 0
DWIDTH 8 0
BBX 7 9 1 0
BITMAP
FC
00
78
84
84
84
EE
84
84
ENDCHAR
STARTCHAR char6046
ENCODING 6046
SWIDTH 512 0
DWIDTH 8 0
BBX 8 9 0 0
BITMAP
63
84
42
42
47
42
42
42
3C
ENDCHAR
STARTCHAR char6047
ENCODING 6047
SWIDTH 832 0
DWIDTH 13 0
BBX 11 9 1 0
BITMAP
7860
8080
78E0
8420
8420
8420
E420
A420
C3C0
ENDCHAR
STARTCHAR char6048
ENCODING 6048
SWIDTH 832 0
DWIDTH 13 0
BBX 12 9 0 0
BITMAP
61E0
8210
4210
4210
4210
4210
4210
4210
3C10
ENDCHAR
STARTCHAR char6049
ENCODING 6049
SWIDTH 768 0
DWIDTH 12 0
BBX 10 14 1 -5
BITMAP
78C0
8500
81C0
8040
7C40
0840
8440
8440
7840
0040
0C40
0440
0540
06C0
ENDCHAR
STARTCHAR char6050
ENCODING 6050
SWIDTH 640 0
DWIDTH 10 0
BBX 8 9 1 0
BITMAP
63
84
E7
21
3F
21
E7
A5
63
ENDCHAR
STARTCHAR char6051
ENCODING 6051
SWIDTH 640 0
DWIDTH 10 0
BBX 8 9 1 0
BITMAP
63
84
E7
21
3F
21
E7
A5
63
ENDCHAR
STARTCHAR char6052
ENCODING 6052
SWIDTH 960 0
DWIDTH 15 0
BBX 13 9 1 0
BITMAP
63F0
8408
E708
2108
3F08
2108
E708
A508
6308
ENDCHAR
STARTCHAR char6053
ENCODING 6053
SWIDTH 512 0
DWIDTH 8 0
BBX 7 11 0 0
BITMAP
02
02
7C
80
7C
42
42
42
72
52
62
ENDCHAR
STARTCHAR char6054
ENCODING 6054
SWIDTH 832 0
DWIDTH 13 0
BBX 11 19 1 -5
BITMAP
0400
0400
07C0
0420
0020
7820
8420
8420
8420
8420
8420
E420
A420
C420
0020
7820
C420
A420
C3C0
ENDCHAR
STARTCHAR char6055
ENCODING 6055
SWIDTH 512 0
DWIDTH 8 0
BBX 6 9 1 0
BITMAP
78
84
84
08
30
C4
84
8C
74
ENDCHAR
STARTCHAR char6056
ENCODING 6056
SWIDTH 512 0
DWIDTH 8 0
BBX 6 11 1 0
BITMAP
FC
00
78
84
84
08
30
C4
84
8C
74
ENDCHAR
STARTCHAR char6057
ENCODING 6057
SWIDTH 640 0
DWIDTH 10 0
BBX 8 9 1 0
BITMAP
78
84
84
08
30
C5
85
8D
75
ENDCHAR
STARTCHAR char6058
ENCODING 6058
SWIDTH 512 0
DWIDTH 8 0
BBX 6 13 1 0
BITMAP
04
64
98
00
78
84
84
08
30
C4
84
8C
74
ENDCHAR
STARTCHAR char6059
ENCODING 6059
SWIDTH 512 0
DWIDTH 8 0
BBX 8 13 0 -4
BITMAP
63
84
42
42
42
42
42
42
3C
04
02
02
7C
ENDCHAR
STARTCHAR char6060
ENCODING 6060
SWIDTH 512 0
DWIDTH 8 0
BBX 8 13 0 -4
BITMAP
63
84
42
42
42
42
42
42
3C
04
02
06
79
ENDCHAR
STARTCHAR char6061
ENCODING 6061
SWIDTH 512 0
DWIDTH 8 0
BBX 6 13 1 -4
BITMAP
58
A4
84
84
84
84
E4
A4
C4
08
04
04
F8
ENDCHAR
STARTCHAR char6062
ENCODING 6062
SWIDTH 512 0
DWIDTH 8 0
BBX 7 13 1 -4
BITMAP
58
A4
84
84
84
84
E4
A4
C4
0C
04
0C
F2
ENDCHAR
STARTCHAR char6063
ENCODING 6063
SWIDTH 512 0
DWIDTH 8 0
BBX 7 12 0 0
BITMAP
40
40
40
7C
02
02
C2
42
42
42
5A
66
ENDCHAR
STARTCHAR char6064
ENCODING 6064
SWIDTH 512 0
DWIDTH 8 0
BBX 6 13 1 -4
BITMAP
58
A4
84
84
84
84
E4
A4
C4
1C
74
9C
60
ENDCHAR
STARTCHAR char6065
ENCODING 6065
SWIDTH 512 0
DWIDTH 8 0
BBX 6 12 1 0
BITMAP
F8
84
00
78
84
84
08
30
C4
84
8C
74
ENDCHAR
STARTCHAR char6066
ENCODING 6066
SWIDTH 576 0
DWIDTH 9 0
BBX 7 9 1 0
BITMAP
7C
80
9E
82
8C
8A
82
82
7C
ENDCHAR
STARTCHAR char6067
ENCODING 6067
SWIDTH 512 0
DWIDTH 8 0
BBX 6 14 1 0
BITMAP
10
10
78
84
00
78
84
84
08
30
C4
84
8C
74
ENDCHAR
STARTCHAR char6068
ENCODING 6068
SWIDTH 320 0
DWIDTH 5 0
BBX 5 13 -1 0
BITMAP
30
08
08
08
F0
08
08
08
08
08
08
08
08
ENDCHAR
STARTCHAR char6069
ENCODING 6069
SWIDTH 320 0
DWIDTH 5 0
BBX 5 9 -1 0
BITMAP
F0
08
08
08
08
08
08
08
08
ENDCHAR
STARTCHAR char6070
ENCODING 6070
SWIDTH 320 0
DWIDTH 5 0
BBX 5 9 -1 0
BITMAP
F0
08
08
08
08
08
08
08
08
ENDCHAR
STARTCHAR char6071
ENCODING 6071
SWIDTH 0 0
DWIDTH 0 0
BBX 6 3 -7 10
BITMAP
70
88
FC
ENDCHAR
STARTCHAR char6072
ENCODING 6072
SWIDTH 0 0
DWIDTH 0 0
BBX 6 4 -7 10
BITMAP
04
74
8C
FC
ENDCHAR
STARTCHAR char6073
ENCODING 6073
SWIDTH 0 0
DWIDTH 0 0
BBX 7 3 -7 10
BITMAP
76
8A
FC
ENDCHAR
STARTCHAR char6074
ENCODING 6074
SWIDTH 0 0
DWIDTH 0 0
BBX 6 4 -7 10
BITMAP
14
74
8C
FC
ENDCHAR
STARTCHAR char6075
ENCODING 6075
SWIDTH 0 0
DWIDTH 0 0
BBX 2 4 -3 -5
BITMAP
C0
40
40
40
ENDCHAR
STARTCHAR char6076
ENCODING 6076
SWIDTH 0 0
DWIDTH 0 0
BBX 4 4 -5 -5
BITMAP
90
90
90
60
ENDCHAR
STARTCHAR char6077
ENCODING 6077
SWIDTH 0 0
DWIDTH 0 0
BBX 5 4 -6 -5
BITMAP
88
88
A8
D8
ENDCHAR
STARTCHAR char6078
ENCODING 6078
SWIDTH 0 0
DWIDTH 0 0
BBX 6 4 -7 10
BITMAP
04
74
8C
FC
ENDCHAR
STARTCHAR char6079
ENCODING 6079
SWIDTH 256 0
DWIDTH 4 0
BBX 7 19 -4 -5
BITMAP
14
74
8C
FC
02
02
02
02
02
02
02
02
02
02
02
02
22
22
1C
ENDCHAR
STARTCHAR char6080
ENCODING 6080
SWIDTH 256 0
DWIDTH 4 0
BBX 5 19 -2 -5
BITMAP
80
80
F0
88
08
08
08
08
08
08
08
08
08
08
08
08
88
88
70
ENDCHAR
STARTCHAR char6081
ENCODING 6081
SWIDTH 320 0
DWIDTH 5 0
BBX 4 9 0 0
BITMAP
60
80
40
40
40
40
70
50
60
ENDCHAR
STARTCHAR char6082
ENCODING 6082
SWIDTH 320 0
DWIDTH 5 0
BBX 4 13 0 0
BITMAP
50
90
60
00
60
80
40
40
40
40
70
50
60
ENDCHAR
STARTCHAR char6083
ENCODING 6083
SWIDTH 320 0
DWIDTH 5 0
BBX 4 15 0 0
BITMAP
C0
40
70
10
60
00
60
80
40
40
40
40
70
50
60
ENDCHAR
STARTCHAR char6084
ENCODING 6084
SWIDTH 320 0
DWIDTH 5 0
BBX 5 9 -1 0
BITMAP
F0
08
08
08
08
08
08
08
08
ENDCHAR
STARTCHAR char6085
ENCODING 6085
SWIDTH 320 0
DWIDTH 5 0
BBX 5 13 -1 0
BITMAP
30
08
08
08
F0
08
08
08
08
08
08
08
08
ENDCHAR
STARTCHAR char6086
ENCODING 6086
SWIDTH 0 0
DWIDTH 0 0
BBX 4 4 -6 10
BITMAP
60
90
90
60
ENDCHAR
STARTCHAR char6087
ENCODING 6087
SWIDTH 384 0
DWIDTH 6 0
BBX 4 9 1 0
BITMAP
60
90
90
60
00
60
90
90
60
ENDCHAR
STARTCHAR char6088
ENCODING 6088
SWIDTH 256 0
DWIDTH 4 0
BBX 2 8 1 1
BITMAP
C0
C0
00
00
00
00
C0
C0
ENDCHAR
STARTCHAR char6089
ENCODING 6089
SWIDTH 0 0
DWIDTH 0 0
BBX 3 3 -5 10
BITMAP
A0
A0
A0
ENDCHAR
STARTCHAR char6090
ENCODING 6090
SWIDTH 0 0
DWIDTH 0 0
BBX 7 2 -8 9
BITMAP
EE
10
ENDCHAR
STARTCHAR char6091
ENCODING 6091
SWIDTH 0 0
DWIDTH 0 0
BBX 1 3 -5 10
BITMAP
80
80
80
ENDCHAR
STARTCHAR char6092
ENCODING 6092
SWIDTH 0 0
DWIDTH 0 0
BBX 6 4 -7 10
BITMAP
10
10
78
84
ENDCHAR
STARTCHAR char6093
ENCODING 6093
SWIDTH 0 0
DWIDTH 0 0
BBX 6 3 -7 10
BITMAP
04
64
98
ENDCHAR
STARTCHAR char6094
ENCODING 6094
SWIDTH 0 0
DWIDTH 0 0
BBX 5 3 -6 10
BITMAP
20
F8
20
ENDCHAR
STARTCHAR char6095
ENCODING 6095
SWIDTH 0 0
DWIDTH 0 0
BBX 5 5 -6 10
BITMAP
08
78
80
A8
D8
ENDCHAR
STARTCHAR char6096
ENCODING 6096
SWIDTH 0 0
DWIDTH 0 0
BBX 5 4 -4 10
BITMAP
08
48
90
60
ENDCHAR
STARTCHAR char6097
ENCODING 6097
SWIDTH 0 0
DWIDTH 0 0
BBX 6 1 -7 10
BITMAP
FC
ENDCHAR
STARTCHAR char6098
ENCODING 6098
SWIDTH 0 0
DWIDTH 0 0
BBX 5 3 -7 -4
BITMAP
20
F8
20
ENDCHAR
STARTCHAR char6099
ENCODING 6099
SWIDTH 0 0
DWIDTH 0 0
BBX 6 4 -8 10
BITMAP
78
84
84
78
ENDCHAR
STARTCHAR char6100
ENCODING 6100
SWIDTH 448 0
DWIDTH 7 0
BBX 5 9 1 0
BITMAP
C8
98
68
08
08
08
08
08
08
ENDCHAR
STARTCHAR char6101
ENCODING 6101
SWIDTH 576 0
DWIDTH 9 0
BBX 7 9 1 0
BITMAP
CA
9A
6A
0A
0A
0A
0A
0A
0A
ENDCHAR
STARTCHAR char6102
ENCODING 6102
SWIDTH 512 0
DWIDTH 8 0
BBX 6 9 1 0
BITMAP
30
48
48
30
FC
30
48
48
30
ENDCHAR
STARTCHAR char6103
ENCODING 6103
SWIDTH 512 0
DWIDTH 8 0
BBX 6 12 1 -3
BITMAP
64
9C
C4
04
04
04
04
04
04
04
04
18
ENDCHAR
STARTCHAR char6104
ENCODING 6104
SWIDTH 1728 0
DWIDTH 27 0
BBX 25 9 1 0
BITMAP
C8F0CC80
99090980
6909C680
09084080
09084080
09084080
09C84080
09484080
09878080
ENDCHAR
STARTCHAR char6105
ENCODING 6105
SWIDTH 640 0
DWIDTH 10 0
BBX 8 9 1 0
BITMAP
3C
5A
A5
A5
A5
A5
A5
5A
3C
ENDCHAR
STARTCHAR char6106
ENCODING 6106
SWIDTH 1344 0
DWIDTH 21 0
BBX 19 9 1 0
BITMAP
380000
448000
84C400
854600
992A60
822980
822900
441000
380000
ENDCHAR
STARTCHAR char6107
ENCODING 6107
SWIDTH 384 0
DWIDTH 6 0
BBX 4 9 1 0
BITMAP
60
80
E0
20
F0
20
E0
A0
60
ENDCHAR
STARTCHAR char6108
ENCODING 6108
SWIDTH 576 0
DWIDTH 9 0
BBX 7 11 1 0
BITMAP
3C
C2
82
86
C0
38
06
42
82
86
78
ENDCHAR
STARTCHAR char6109
ENCODING 6109
SWIDTH 0 0
DWIDTH 0 0
BBX 6 3 -7 10
BITMAP
78
84
84
ENDCHAR
STARTCHAR char6112
ENCODING 6112
SWIDTH 512 0
DWIDTH 8 0
BBX 6 9 1 0
BITMAP
78
84
84
84
84
84
84
84
78
ENDCHAR
STARTCHAR char6113
ENCODING 6113
SWIDTH 512 0
DWIDTH 8 0
BBX 6 9 1 0
BITMAP
78
84
84
84
64
04
84
84
78
ENDCHAR
STARTCHAR char6114
ENCODING 6114
SWIDTH 640 0
DWIDTH 10 0
BBX 9 11 0 0
BITMAP
C000
4000
4B00
5480
5080
5880
4080
4080
4080
6180
3F00
ENDCHAR
STARTCHAR char6115
ENCODING 6115
SWIDTH 832 0
DWIDTH 13 0
BBX 11 9 1 0
BITMAP
7BC0
8420
8420
8420
8420
8420
E420
A420
C420
ENDCHAR
STARTCHAR char6116
ENCODING 6116
SWIDTH 576 0
DWIDTH 9 0
BBX 8 11 0 0
BITMAP
C0
40
40
40
40
43
44
44
42
41
3F
ENDCHAR
STARTCHAR char6117
ENCODING 6117
SWIDTH 576 0
DWIDTH 9 0
BBX 7 12 1 0
BITMAP
02
02
72
52
FC
80
86
88
88
84
82
7E
ENDCHAR
STARTCHAR char6118
ENCODING 6118
SWIDTH 512 0
DWIDTH 8 0
BBX 6 11 1 0
BITMAP
80
80
F8
84
84
04
64
84
84
84
78
ENDCHAR
STARTCHAR char6119
ENCODING 6119
SWIDTH 640 0
DWIDTH 10 0
BBX 8 11 1 0
BITMAP
01
01
59
A5
85
85
85
85
E5
A5
C7
ENDCHAR
STARTCHAR char6120
ENCODING 6120
SWIDTH 512 0
DWIDTH 8 0
BBX 6 11 1 0
BITMAP
04
04
7C
84
80
9C
94
8C
84
B4
CC
ENDCHAR
STARTCHAR char6121
ENCODING 6121
SWIDTH 512 0
DWIDTH 8 0
BBX 6 11 1 0
BITMAP
04
04
7C
84
80
78
80
98
84
84
78
ENDCHAR
STARTCHAR char6128
ENCODING 6128
SWIDTH 384 0
DWIDTH 6 0
BBX 4 5 1 0
BITMAP
60
90
90
90
60
ENDCHAR
STARTCHAR char6129
ENCODING 6129
SWIDTH 384 0
DWIDTH 6 0
BBX 4 6 1 0
BITMAP
20
60
60
90
90
90
ENDCHAR
STARTCHAR char6130
ENCODING 6130
SWIDTH 192 0
DWIDTH 3 0
BBX 1 5 1 0
BITMAP
80
80
80
80
80
ENDCHAR
STARTCHAR char6131
ENCODING 6131
SWIDTH 704 0
DWIDTH 11 0
BBX 8 6 1 0
BITMAP
22
66
66
59
99
89
ENDCHAR
STARTCHAR char6132
ENCODING 6132
SWIDTH 384 0
DWIDTH 6 0
BBX 4 6 1 0
BITMAP
80
90
90
50
60
20
ENDCHAR
STARTCHAR char6133
ENCODING 6133
SWIDTH 448 0
DWIDTH 7 0
BBX 3 5 2 0
BITMAP
A0
40
A0
A0
E0
ENDCHAR
STARTCHAR char6134
ENCODING 6134
SWIDTH 256 0
DWIDTH 4 0
BBX 2 6 1 0
BITMAP
80
80
80
40
40
40
ENDCHAR
STARTCHAR char6135
ENCODING 6135
SWIDTH 512 0
DWIDTH 8 0
BBX 6 6 1 0
BITMAP
20
24
64
58
98
88
ENDCHAR
STARTCHAR char6136
ENCODING 6136
SWIDTH 256 0
DWIDTH 4 0
BBX 3 6 1 0
BITMAP
20
40
40
40
80
80
ENDCHAR
STARTCHAR char6137
ENCODING 6137
SWIDTH 512 0
DWIDTH 8 0
BBX 6 7 1 -3
BITMAP
08
10
60
F8
04
04
18
ENDCHAR
STARTCHAR char6624
ENCODING 6624
SWIDTH 640 0
DWIDTH 10 0
BBX 6 20 2 -4
BITMAP
78
84
84
84
84
84
84
84
78
04
04
7C
84
80
9C
84
84
84
B4
CC
ENDCHAR
STARTCHAR char6625
ENCODING 6625
SWIDTH 640 0
DWIDTH 10 0
BBX 6 20 2 -4
BITMAP
78
84
84
84
84
64
04
84
78
00
00
44
8C
74
04
04
04
04
04
04
ENDCHAR
STARTCHAR char6626
ENCODING 6626
SWIDTH 768 0
DWIDTH 12 0
BBX 9 22 1 -4
BITMAP
C000
4000
5080
5D80
5280
5080
5080
4080
4080
4080
2100
1E00
0000
3100
2300
1D00
0100
0100
0100
0100
0100
0100
ENDCHAR
STARTCHAR char6627
ENCODING 6627
SWIDTH 896 0
DWIDTH 14 0
BBX 10 20 2 -4
BITMAP
7B80
8440
8440
8440
8440
8440
8440
8440
8440
C440
0000
1900
1300
1D00
0100
0100
0100
0100
0100
0100
ENDCHAR
STARTCHAR char6628
ENCODING 6628
SWIDTH 704 0
DWIDTH 11 0
BBX 8 22 1 -4
BITMAP
C0
40
40
40
47
44
44
44
44
42
62
1E
00
22
46
3A
02
02
02
02
02
02
ENDCHAR
STARTCHAR char6629
ENCODING 6629
SWIDTH 640 0
DWIDTH 10 0
BBX 6 22 2 -4
BITMAP
04
04
64
64
98
80
8C
88
88
88
84
7C
00
44
8C
74
04
04
04
04
04
04
ENDCHAR
STARTCHAR char6630
ENCODING 6630
SWIDTH 640 0
DWIDTH 10 0
BBX 6 22 2 -4
BITMAP
80
80
B8
C4
84
04
74
84
84
84
8C
78
00
44
8C
74
04
04
04
04
04
04
ENDCHAR
STARTCHAR char6631
ENCODING 6631
SWIDTH 768 0
DWIDTH 12 0
BBX 8 22 2 -4
BITMAP
01
01
49
B5
85
85
85
85
85
85
85
C7
00
32
26
3A
02
02
02
02
02
02
ENDCHAR
STARTCHAR char6632
ENCODING 6632
SWIDTH 640 0
DWIDTH 10 0
BBX 6 21 2 -4
BITMAP
04
7C
84
84
80
8C
84
84
94
EC
84
00
44
8C
74
04
04
04
04
04
04
ENDCHAR
STARTCHAR char6633
ENCODING 6633
SWIDTH 640 0
DWIDTH 10 0
BBX 6 22 2 -4
BITMAP
04
04
7C
84
80
80
78
80
9C
84
84
78
00
C4
8C
74
04
04
04
04
04
04
ENDCHAR
STARTCHAR char6634
ENCODING 6634
SWIDTH 1280 0
DWIDTH 20 0
BBX 16 20 2 -4
BITMAP
781E
8421
8421
8421
8421
6421
0421
8421
781E
0000
0000
0440
08C0
0740
0040
0040
0040
0040
0040
0040
ENDCHAR
STARTCHAR char6635
ENCODING 6635
SWIDTH 1280 0
DWIDTH 20 0
BBX 16 20 2 -4
BITMAP
781E
8421
8421
8421
8421
6419
0401
8421
781E
0000
0000
0440
08C0
0740
0040
0040
0040
0040
0040
0040
ENDCHAR
STARTCHAR char6636
ENCODING 6636
SWIDTH 1344 0
DWIDTH 21 0
BBX 17 22 2 -4
BITMAP
00C000
004000
004000
784D80
844A80
844880
844880
644080
044080
844080
842180
781E00
000000
062000
04E000
072000
002000
002000
002000
002000
002000
002000
ENDCHAR
STARTCHAR char6637
ENCODING 6637
SWIDTH 1472 0
DWIDTH 23 0
BBX 19 20 2 -4
BITMAP
783DC0
844220
844220
844220
844220
644220
044220
844220
844220
784220
000000
032000
066000
03A000
002000
002000
002000
002000
002000
002000
ENDCHAR
STARTCHAR char6638
ENCODING 6638
SWIDTH 1216 0
DWIDTH 19 0
BBX 16 22 2 -4
BITMAP
00C0
0040
0040
7840
8447
8444
8444
6444
0444
8442
8462
781F
0000
0440
08C0
0740
0040
0040
0040
0040
0040
0040
ENDCHAR
STARTCHAR char6639
ENCODING 6639
SWIDTH 1344 0
DWIDTH 21 0
BBX 16 22 2 -4
BITMAP
0001
0001
0031
7833
844C
8440
8447
6444
0444
8442
8442
783F
0000
0440
08C0
0740
0040
0040
0040
0040
0040
0040
ENDCHAR
STARTCHAR char6640
ENCODING 6640
SWIDTH 640 0
DWIDTH 10 0
BBX 6 22 2 -4
BITMAP
04
04
7C
84
80
9C
84
84
A4
CC
84
04
04
7C
84
80
9C
84
84
84
B4
CC
ENDCHAR
STARTCHAR char6641
ENCODING 6641
SWIDTH 640 0
DWIDTH 10 0
BBX 6 20 2 -4
BITMAP
44
8C
74
04
04
04
04
04
04
00
00
78
84
84
84
64
04
84
84
78
ENDCHAR
STARTCHAR char6642
ENCODING 6642
SWIDTH 768 0
DWIDTH 12 0
BBX 9 20 1 -4
BITMAP
2200
4600
3A00
0200
0200
0200
0200
0200
0200
C000
4000
5880
5780
5080
5080
4080
4080
4080
6180
3F00
ENDCHAR
STARTCHAR char6643
ENCODING 6643
SWIDTH 896 0
DWIDTH 14 0
BBX 10 20 2 -4
BITMAP
3200
6600
3A00
0200
0200
0200
0200
0200
0200
0000
0000
7B80
8440
8440
8440
8440
8440
8440
8440
C440
ENDCHAR
STARTCHAR char6644
ENCODING 6644
SWIDTH 704 0
DWIDTH 11 0
BBX 8 20 1 -4
BITMAP
62
46
3A
02
02
02
02
02
02
C0
40
40
40
47
44
44
44
42
42
3F
ENDCHAR
STARTCHAR char6645
ENCODING 6645
SWIDTH 640 0
DWIDTH 10 0
BBX 6 20 2 -4
BITMAP
44
8C
74
04
04
04
04
04
04
04
64
64
F8
80
8C
88
88
88
84
7C
ENDCHAR
STARTCHAR char6646
ENCODING 6646
SWIDTH 640 0
DWIDTH 10 0
BBX 6 20 2 -4
BITMAP
44
8C
74
04
04
04
04
04
04
80
80
B8
C4
84
04
74
84
84
84
78
ENDCHAR
STARTCHAR char6647
ENCODING 6647
SWIDTH 768 0
DWIDTH 12 0
BBX 8 20 2 -4
BITMAP
44
8C
74
04
04
04
04
04
04
01
01
49
B5
85
85
85
85
85
85
E7
ENDCHAR
STARTCHAR char6648
ENCODING 6648
SWIDTH 640 0
DWIDTH 10 0
BBX 6 20 2 -4
BITMAP
44
8C
74
04
04
04
04
04
04
04
04
7C
84
80
8C
84
84
94
AC
C4
ENDCHAR
STARTCHAR char6649
ENCODING 6649
SWIDTH 640 0
DWIDTH 10 0
BBX 6 20 2 -4
BITMAP
C4
8C
74
04
04
04
04
04
04
04
04
7C
84
80
78
80
98
84
84
78
ENDCHAR
STARTCHAR char6650
ENCODING 6650
SWIDTH 1280 0
DWIDTH 20 0
BBX 16 20 2 -4
BITMAP
0440
08C0
0740
0040
0040
0040
0040
0040
0040
0000
0000
781E
8421
8421
8421
6421
0421
8421
8421
781E
ENDCHAR
STARTCHAR char6651
ENCODING 6651
SWIDTH 1280 0
DWIDTH 20 0
BBX 16 20 2 -4
BITMAP
0440
08C0
0740
0040
0040
0040
0040
0040
0040
0000
0000
781E
8421
8421
8421
6419
0401
8421
8421
781E
ENDCHAR
STARTCHAR char6652
ENCODING 6652
SWIDTH 1408 0
DWIDTH 22 0
BBX 18 20 2 -4
BITMAP
08C000
0F4000
004000
004000
004000
004000
004000
004000
004000
006000
002000
782CC0
842B40
842840
842840
642040
042040
842040
8430C0
781F00
ENDCHAR
STARTCHAR char6653
ENCODING 6653
SWIDTH 1536 0
DWIDTH 24 0
BBX 20 20 2 -4
BITMAP
044000
08C000
074000
004000
004000
004000
004000
004000
004000
000000
000000
781DE0
842210
842210
842210
642210
042210
842210
842210
783210
ENDCHAR
STARTCHAR char6654
ENCODING 6654
SWIDTH 1280 0
DWIDTH 20 0
BBX 16 20 2 -4
BITMAP
0440
08C0
0740
0040
0040
0040
0040
0040
0040
0060
0020
7820
8420
8427
8424
6424
0424
8422
8422
781F
ENDCHAR
STARTCHAR char6655
ENCODING 6655
SWIDTH 1280 0
DWIDTH 20 0
BBX 16 20 2 -4
BITMAP
0C40
08C0
0F40
0040
0040
0040
0040
0040
0040
0001
0011
7811
842E
8420
8427
6424
0424
8422
8422
781F
ENDCHAR
STARTCHAR char8203
ENCODING 8203
SWIDTH 0 0
DWIDTH 0 0
BBX 0 0 0 0
BITMAP
ENDCHAR
STARTCHAR char8204
ENCODING 8204
SWIDTH 0 0
DWIDTH 0 0
BBX 1 11 0 -1
BITMAP
80
80
80
80
80
80
80
80
80
80
80
ENDCHAR
STARTCHAR char8205
ENCODING 8205
SWIDTH 0 0
DWIDTH 0 0
BBX 4 13 -2 -2
BITMAP
90
60
60
40
40
40
40
40
40
40
40
40
40
ENDCHAR
STARTCHAR char8208
ENCODING 8208
SWIDTH 320 0
DWIDTH 5 0
BBX 3 1 1 4
BITMAP
E0
ENDCHAR
STARTCHAR char8216
ENCODING 8216
SWIDTH 128 0
DWIDTH 2 0
BBX 2 4 0 7
BITMAP
40
40
80
80
ENDCHAR
STARTCHAR char8217
ENCODING 8217
SWIDTH 128 0
DWIDTH 2 0
BBX 2 4 0 7
BITMAP
40
40
80
80
ENDCHAR
STARTCHAR char8220
ENCODING 8220
SWIDTH 320 0
DWIDTH 5 0
BBX 4 4 0 7
BITMAP
50
50
90
90
ENDCHAR
STARTCHAR char8221
ENCODING 8221
SWIDTH 320 0
DWIDTH 5 0
BBX 5 4 0 7
BITMAP
48
50
90
80
ENDCHAR
STARTCHAR char8230
ENCODING 8230
SWIDTH 704 0
DWIDTH 11 0
BBX 9 1 1 0
BITMAP
C880
ENDCHAR
STARTCHAR char9676
ENCODING 9676
SWIDTH 640 0
DWIDTH 10 0
BBX 7 4 1 1
BITMAP
24
00
00
82
ENDCHAR
STARTCHAR char57344
ENCODING 57344
SWIDTH 0 0
DWIDTH 0 0
BBX 6 4 -7 -5
BITMAP
78
84
84
84
ENDCHAR
STARTCHAR char57345
ENCODING 57345
SWIDTH 0 0
DWIDTH 0 0
BBX 6 4 -7 -5
BITMAP
78
8C
30
7C
ENDCHAR
STARTCHAR char57346
ENCODING 57346
SWIDTH 0 0
DWIDTH 0 0
BBX 6 4 -7 -5
BITMAP
78
84
E4
84
ENDCHAR
STARTCHAR char57347
ENCODING 57347
SWIDTH 256 0
DWIDTH 4 0
BBX 8 14 -5 -5
BITMAP
03
04
07
01
01
01
01
01
01
01
C1
49
49
36
ENDCHAR
STARTCHAR char57348
ENCODING 57348
SWIDTH 0 0
DWIDTH 0 0
BBX 6 3 -7 -4
BITMAP
64
88
70
ENDCHAR
STARTCHAR char57349
ENCODING 57349
SWIDTH 0 0
DWIDTH 0 0
BBX 6 4 -7 -5
BITMAP
4C
94
98
64
ENDCHAR
STARTCHAR char57350
ENCODING 57350
SWIDTH 0 0
DWIDTH 0 0
BBX 6 4 -7 -5
BITMAP
4C
44
F4
CC
ENDCHAR
STARTCHAR char57351
ENCODING 57351
SWIDTH 0 0
DWIDTH 0 0
BBX 7 4 -7 -5
BITMAP
44
86
94
68
ENDCHAR
STARTCHAR char57352
ENCODING 57352
SWIDTH 256 0
DWIDTH 4 0
BBX 9 14 -6 -5
BITMAP
0180
0200
0380
0080
0080
0080
0080
0080
0080
0080
6080
9480
9480
DB00
ENDCHAR
STARTCHAR char57353
ENCODING 57353
SWIDTH 0 0
DWIDTH 0 0
BBX 6 3 -7 -4
BITMAP
0C
C4
38
ENDCHAR
STARTCHAR char57354
ENCODING 57354
SWIDTH 0 0
DWIDTH 0 0
BBX 11 4 -12 -5
BITMAP
4BC0
B420
8060
DFC0
ENDCHAR
STARTCHAR char57355
ENCODING 57355
SWIDTH 0 0
DWIDTH 0 0
BBX 6 4 -7 -5
BITMAP
78
A4
A4
C4
ENDCHAR
STARTCHAR char57356
ENCODING 57356
SWIDTH 0 0
DWIDTH 0 0
BBX 7 5 -7 -5
BITMAP
04
7E
84
A4
DC
ENDCHAR
STARTCHAR char57357
ENCODING 57357
SWIDTH 0 0
DWIDTH 0 0
BBX 6 4 -7 -5
BITMAP
DC
24
FC
F4
ENDCHAR
STARTCHAR char57358
ENCODING 57358
SWIDTH 256 0
DWIDTH 4 0
BBX 10 14 -7 -5
BITMAP
00C0
0100
01C0
0040
0040
0040
0040
0040
0040
0040
5840
A740
84C0
C440
ENDCHAR
STARTCHAR char57359
ENCODING 57359
SWIDTH 0 0
DWIDTH 0 0
BBX 13 4 -16 -5
BITMAP
7070
A888
AA88
CD88
ENDCHAR
STARTCHAR char57360
ENCODING 57360
SWIDTH 0 0
DWIDTH 0 0
BBX 6 4 -7 -5
BITMAP
78
A4
A4
C4
ENDCHAR
STARTCHAR char57361
ENCODING 57361
SWIDTH 0 0
DWIDTH 0 0
BBX 6 3 -7 -4
BITMAP
70
88
C4
ENDCHAR
STARTCHAR char57362
ENCODING 57362
SWIDTH 0 0
DWIDTH 0 0
BBX 6 4 -7 -5
BITMAP
24
4C
94
64
ENDCHAR
STARTCHAR char57363
ENCODING 57363
SWIDTH 0 0
DWIDTH 0 0
BBX 6 4 -7 -5
BITMAP
1C
74
9C
60
ENDCHAR
STARTCHAR char57364
ENCODING 57364
SWIDTH 0 0
DWIDTH 0 0
BBX 6 5 -7 -5
BITMAP
08
FC
88
7C
0C
ENDCHAR
STARTCHAR char57365
ENCODING 57365
SWIDTH 256 0
DWIDTH 4 0
BBX 5 14 -2 -5
BITMAP
18
20
38
08
08
08
08
08
08
08
C8
88
A8
D8
ENDCHAR
STARTCHAR char57366
ENCODING 57366
SWIDTH 0 0
DWIDTH 0 0
BBX 6 4 -7 -5
BITMAP
8C
8C
A4
DC
ENDCHAR
STARTCHAR char57367
ENCODING 57367
SWIDTH 0 0
DWIDTH 0 0
BBX 6 4 -7 -5
BITMAP
58
A4
84
C4
ENDCHAR
STARTCHAR char57368
ENCODING 57368
SWIDTH 64 0
DWIDTH 1 0
BBX 6 4 -7 -5
BITMAP
78
84
44
C4
ENDCHAR
STARTCHAR char57369
ENCODING 57369
SWIDTH 0 0
DWIDTH 0 0
BBX 7 4 -7 -4
BITMAP
04
04
FE
06
ENDCHAR
STARTCHAR char57370
ENCODING 57370
SWIDTH 256 0
DWIDTH 4 0
BBX 5 14 -2 -5
BITMAP
18
20
38
08
08
08
08
08
08
08
08
88
88
70
ENDCHAR
STARTCHAR char57371
ENCODING 57371
SWIDTH 256 0
DWIDTH 4 0
BBX 6 14 0 -5
BITMAP
60
80
40
40
40
40
40
40
40
40
40
44
44
38
ENDCHAR
STARTCHAR char57372
ENCODING 57372
SWIDTH 0 0
DWIDTH 0 0
BBX 6 3 -7 -4
BITMAP
64
94
9C
ENDCHAR
STARTCHAR char57373
ENCODING 57373
SWIDTH 0 0
DWIDTH 0 0
BBX 6 4 -7 -4
BITMAP
04
3C
C8
70
ENDCHAR
STARTCHAR char57374
ENCODING 57374
SWIDTH 256 0
DWIDTH 4 0
BBX 7 14 -3 -5
BITMAP
0C
10
1C
04
04
04
04
04
0E
04
C4
44
44
38
ENDCHAR
STARTCHAR char57375
ENCODING 57375
SWIDTH 0 0
DWIDTH 0 0
BBX 5 3 -6 -4
BITMAP
B8
A8
E8
ENDCHAR
STARTCHAR char57376
ENCODING 57376
SWIDTH 0 0
DWIDTH 0 0
BBX 6 4 -7 -5
BITMAP
44
7C
44
CC
ENDCHAR
STARTCHAR char57377
ENCODING 57377
SWIDTH 0 0
DWIDTH 0 0
BBX 2 2 -3 -6
BITMAP
C0
40
ENDCHAR
STARTCHAR char57378
ENCODING 57378
SWIDTH 0 0
DWIDTH 0 0
BBX 4 2 -5 -6
BITMAP
90
F0
ENDCHAR
STARTCHAR char57379
ENCODING 57379
SWIDTH 0 0
DWIDTH 0 0
BBX 5 2 -6 -6
BITMAP
A8
D8
ENDCHAR
STARTCHAR char57380
ENCODING 57380
SWIDTH 0 0
DWIDTH 0 0
BBX 6 3 -7 12
BITMAP
70
88
FC
ENDCHAR
STARTCHAR char57381
ENCODING 57381
SWIDTH 0 0
DWIDTH 0 0
BBX 6 4 -7 12
BITMAP
04
74
8C
FC
ENDCHAR
STARTCHAR char57382
ENCODING 57382
SWIDTH 0 0
DWIDTH 0 0
BBX 7 3 -7 12
BITMAP
76
8A
FC
ENDCHAR
STARTCHAR char6074
ENCODING 57383
SWIDTH 0 0
DWIDTH 0 0
BBX 6 4 -7 12
BITMAP
14
74
8C
FC
ENDCHAR
STARTCHAR char57384
ENCODING 57384
SWIDTH 0 0
DWIDTH 0 0
BBX 4 4 -6 12
BITMAP
60
90
90
60
ENDCHAR
STARTCHAR char57385
ENCODING 57385
SWIDTH 832 0
DWIDTH 13 0
BBX 11 9 1 0
BITMAP
5BC0
A420
8420
8420
8420
8420
E420
A420
C420
ENDCHAR
STARTCHAR char57386
ENCODING 57386
SWIDTH 512 0
DWIDTH 8 0
BBX 7 9 0 0
BITMAP
7E
80
42
42
42
42
42
46
3A
ENDCHAR
STARTCHAR char57387
ENCODING 57387
SWIDTH 256 0
DWIDTH 4 0
BBX 6 16 0 -7
BITMAP
60
80
40
40
40
40
40
40
40
40
40
40
40
40
40
3C
ENDCHAR
STARTCHAR char57388
ENCODING 57388
SWIDTH 0 0
DWIDTH 0 0
BBX 7 4 -7 9
BITMAP
02
76
8C
FC
ENDCHAR
STARTCHAR char57389
ENCODING 57389
SWIDTH 256 0
DWIDTH 4 0
BBX 7 21 -4 -7
BITMAP
14
74
8C
FC
02
02
02
02
02
02
02
02
02
02
02
02
02
02
02
02
3C
ENDCHAR
STARTCHAR char57390
ENCODING 57390
SWIDTH 256 0
DWIDTH 4 0
BBX 5 21 -2 -7
BITMAP
80
80
F0
88
08
08
08
08
08
08
08
08
08
08
08
08
08
08
08
08
F0
ENDCHAR
ENDFONT
